<svg width="16" height="16" viewBox="0 0 16 16" xmlns="http://www.w3.org/2000/svg">
    <title>account</title>
    <path d="M7.917 0C3.543 0 0 3.543 0 7.917s3.543 7.916 7.917 7.916 7.916-3.542 7.916-7.916C15.833 3.543 12.291 0 7.917 0zm0 1.188c-3.718 0-6.73 3.01-6.73 6.729 0 3.718 3.012 6.729 6.73 6.729 3.718 0 6.729-3.011 6.729-6.73 0-3.717-3.011-6.729-6.73-6.729zm.176 1.45c1.455 0 2.638 1.184 2.638 2.64 0 1.46-1.183 2.639-2.638 2.639-1.456 0-2.64-1.179-2.64-2.64 0-1.455 1.184-2.638 2.64-2.638zm0 11.436c-2.204 0-4.14-1.144-5.278-2.877.022-1.774 3.523-2.753 5.278-2.753 1.754 0 5.251.979 5.277 2.753-1.139 1.733-3.074 2.877-5.277 2.877z" fill="#444" fill-rule="evenodd"/>
</svg>