<svg width="36" height="36" viewBox="0 0 36 36" xmlns="http://www.w3.org/2000/svg">
    <title>budget-5k</title>
    <path d="M18 36c9.941 0 18-8.059 18-18S27.941 0 18 0 0 8.059 0 18s8.059 18 18 18zm-5.918-18.88c.18-.036.353-.062.519-.078.166-.016.327-.024.483-.024.456 0 .859.069 1.209.207.35.138.644.327.882.567.238.24.417.522.537.846.12.324.18.672.18 1.044 0 .464-.082.887-.246 1.269-.164.382-.391.71-.681.984-.29.274-.636.487-1.038.639-.402.152-.841.228-1.317.228-.276 0-.54-.029-.792-.087-.252-.058-.487-.136-.705-.234-.218-.098-.421-.211-.609-.339-.188-.128-.356-.262-.504-.402l.51-.696c.108-.148.248-.222.42-.222.108 0 .214.032.318.096.104.064.222.135.354.213.132.078.286.149.462.213.176.064.39.096.642.096.26 0 .486-.043.678-.129.192-.086.351-.204.477-.354s.22-.328.282-.534c.062-.206.093-.427.093-.663 0-.452-.129-.801-.387-1.047-.258-.246-.633-.369-1.125-.369-.404 0-.81.076-1.218.228l-1.026-.288.732-4.284h4.368v.696c0 .116-.017.221-.051.315-.034.094-.09.176-.168.246-.078.07-.178.124-.3.162-.122.038-.271.057-.447.057h-2.25l-.282 1.644zm7.134.474h.354c.296 0 .51-.092.642-.276l2.202-2.946c.104-.14.218-.237.342-.291.124-.054.276-.081.456-.081h1.56L22 17.57c-.18.232-.366.398-.558.498.14.056.266.129.378.219.112.09.22.209.324.357l2.844 4.062h-1.602c-.104 0-.193-.008-.267-.024-.074-.016-.139-.038-.195-.066-.056-.028-.104-.063-.144-.105-.04-.042-.078-.091-.114-.147l-2.238-3.132c-.076-.108-.166-.185-.27-.231-.104-.046-.25-.069-.438-.069h-.504v3.774h-1.8V14h1.8v3.594z" fill="#174B7E" fill-rule="evenodd"/>
</svg>