<svg width="36" height="36" viewBox="0 0 36 36" xmlns="http://www.w3.org/2000/svg">
    <title>budget-10k</title>
    <path d="M18 36c9.941 0 18-8.059 18-18S27.941 0 18 0 0 8.059 0 18s8.059 18 18 18zm-5.456-14.416v1.218H7.66v-1.218h1.728V16.82c0-.104.002-.21.006-.318.004-.108.01-.218.018-.33l-1.14.948c-.08.06-.158.098-.234.114-.076.016-.148.017-.216.003-.068-.014-.128-.038-.18-.072-.052-.034-.092-.069-.12-.105L7 16.358l2.676-2.268h1.362v7.494h1.506zm7.398-3.138c0 .76-.082 1.42-.246 1.98-.164.56-.39 1.023-.678 1.389-.288.366-.629.638-1.023.816-.394.178-.819.267-1.275.267-.456 0-.88-.089-1.272-.267-.392-.178-.73-.45-1.014-.816-.284-.366-.507-.829-.669-1.389-.162-.56-.243-1.22-.243-1.98s.081-1.419.243-1.977c.162-.558.385-1.02.669-1.386.284-.366.622-.638 1.014-.816.392-.178.816-.267 1.272-.267.456 0 .881.089 1.275.267.394.178.735.45 1.023.816.288.366.514.828.678 1.386.164.558.246 1.217.246 1.977zm2.982-.756h.354c.296 0 .51-.092.642-.276l2.202-2.946c.104-.14.218-.237.342-.291.124-.054.276-.081.456-.081h1.56l-2.772 3.57c-.18.232-.366.398-.558.498.14.056.266.129.378.219.112.09.22.209.324.357l2.844 4.062h-1.602c-.104 0-.193-.008-.267-.024-.074-.016-.139-.038-.195-.066-.056-.028-.104-.063-.144-.105-.04-.042-.078-.091-.114-.147l-2.238-3.132c-.076-.108-.166-.185-.27-.231-.104-.046-.25-.069-.438-.069h-.504v3.774h-1.8v-8.706h1.8v3.594zm-4.692.756c0-.616-.043-1.124-.129-1.524-.086-.4-.199-.716-.339-.948-.14-.232-.301-.394-.483-.486-.182-.092-.369-.138-.561-.138-.192 0-.377.046-.555.138-.178.092-.336.254-.474.486-.138.232-.249.548-.333.948-.084.4-.126.908-.126 1.524 0 .62.042 1.13.126 1.53.084.4.195.716.333.948.138.232.296.394.474.486.178.092.363.138.555.138.192 0 .379-.046.561-.138.182-.092.343-.254.483-.486.14-.232.253-.548.339-.948.086-.4.129-.91.129-1.53z" fill="#174B7E" fill-rule="evenodd"/>
</svg>