<?xml version="1.0" encoding="utf-8"?>
<!-- Generator: Adobe Illustrator 19.2.1, SVG Export Plug-In . SVG Version: 6.00 Build 0)  -->
<svg version="1.1" id="Layer_1" xmlns="http://www.w3.org/2000/svg" xmlns:xlink="http://www.w3.org/1999/xlink" x="0px" y="0px"
	 viewBox="0 0 47.7 36.7" style="enable-background:new 0 0 47.7 36.7;" xml:space="preserve">
<title>Shape</title>
<g>
	<g>
		<path d="M47.7,9.6c0-2.2-1.5-3.5-3.6-3.7c-0.8-0.1-1.5-0.1-2.3,0c-3.9,0.6-7.1-0.5-9.5-3.9c-1.1-1.6-2.8-2.1-4.8-2
			c-2.5,0.1-5.1-0.2-7.6,0.1c-1.4,0.1-3.2,0.7-4,1.7c-2.7,3.4-6,4.9-10.3,4.1c-0.3-0.1-0.6,0-0.9,0C1.3,6,0,7.2,0,10.6
			c0,7.1,0,14.2,0,21.3c0,3.5,1.3,4.8,4.9,4.8c6.3,0,12.7,0,19,0c6.5,0,13,0,19.5,0c2.6,0,4.3-1.4,4.3-3.7
			C47.8,25.2,47.7,17.4,47.7,9.6z M23.8,30.9c-5.9,0-10.6-4.7-10.5-10.6c0-5.9,4.8-10.6,10.7-10.5c5.8,0.1,10.4,4.8,10.4,10.6
			C34.4,26.2,29.7,30.9,23.8,30.9z M43,11.9c-0.5,0-1.4-1-1.3-1.4c0.1-0.6,0.8-1.5,1.4-1.6c0.5-0.1,1.2,0.7,2.3,1.5
			C44.3,11.2,43.7,11.9,43,11.9z"/>
		<path d="M23.9,12.3c4.5,0,7.9,3.5,7.9,8c0,4.4-3.6,8-8,8c-4.4,0-7.9-3.6-7.9-8.1C15.9,15.8,19.4,12.3,23.9,12.3z"/>
	</g>
</g>
</svg>
