<svg width="17" height="14" viewBox="0 0 17 14" xmlns="http://www.w3.org/2000/svg">
    <title>cart</title>
    <path d="M14.361 13.389c.69 0 1.25-.56 1.25-1.25 0-.691-.56-1.25-1.25-1.25-.691 0-1.25.559-1.25 1.25 0 .69.559 1.25 1.25 1.25zm-10.028-1.25c0 .69.56 1.25 1.25 1.25s1.25-.56 1.25-1.25c0-.691-.56-1.25-1.25-1.25s-1.25.559-1.25 1.25zM16 7c.164-.047.3-.225.3-.397l.017-.128.683-4.92H4.111V.312c0-.171-.14-.311-.31-.311H.31C.14 0 0 .14 0 .311v1.245h2.556L4.04 8.522l.07.734v1.282c0 .17.14.311.311.311H14.69c.171 0 .311-.141.311-.31V9.332H6.252c-.895 0-.914-1.428-.16-1.644L16 7z" fill="#444" fill-rule="evenodd"/>
</svg>