<svg width="320" height="215" viewBox="0 0 320 215" xmlns="http://www.w3.org/2000/svg">
    <title>diy</title>
    <path d="M305.536 0v9.405H14.284V0H0v216.319h320.168V0h-14.632zM158.168 134.459h-2.787v-20.204h2.787v20.204zm35.187-72.106c-2.09 0-3.484-1.394-3.484-3.484s1.394-3.483 3.484-3.483h15.329c2.09 0 3.484 1.393 3.484 3.483s-1.394 3.484-3.484 3.484h-15.33zm49.122 55.386c0 .696-.696 1.393-1.393 1.393-.697 0-1.394-.697-1.394-1.393v-3.832c0-.697.697-1.393 1.394-1.393s1.393.696 1.393 1.393v3.832zm33.097-54.341c-.697 0-1.045-.349-1.045-1.045 0-.697.348-1.045 1.045-1.045h6.271c.697 0 1.045.348 1.045 1.045 0 .696-.348 1.045-1.045 1.045h-6.27zm-57.484 3.831c.697-2.438.697-10.45.697-11.843v-9.754c0-1.741-1.393-3.135-3.135-3.135-.697 0-1.394.349-1.742.697l-5.226 3.832c-1.394 1.045-2.787 1.393-4.53 1.393h-8.012c-1.394 0-2.439-.348-3.832-.697l-4.53-2.09c-.348 0-.696-.348-1.044-.348-1.394 0-2.44 1.045-2.44 2.438v34.834c0 1.742.698 3.135 2.091 4.18v48.071h-26.129v-20.203c1.394 0 2.439-1.045 2.439-2.439v-2.09h.348c1.394 0 2.439-1.045 2.439-2.438v-4.529c0-1.393-1.045-2.438-2.439-2.438h-.348v-9.753h.348c1.394 0 2.439-1.046 2.439-2.439V74.545c0-1.394-1.045-2.439-2.439-2.439h-12.542c-1.393 0-2.438 1.045-2.438 2.439v13.933c0 1.393 1.045 2.439 2.438 2.439h.349v9.056h-.349c-1.393 0-2.438 1.045-2.438 2.439v4.528c0 1.393 1.045 2.438 2.438 2.438h.349v2.09c0 1.394 1.045 2.439 2.438 2.439v20.204h-47.729v-13.934c0-1.393-1.045-2.787-2.438-2.787h-4.529v-5.573c0-.697-.349-1.045-1.046-1.045H55.394v-20.9h3.483v12.888c0 1.393.697 2.438 2.09 2.438h73.162c1.394 0 2.439-1.045 2.439-2.438V76.983c0-1.393-1.045-2.438-2.439-2.438H60.968c-1.394 0-2.09 1.045-2.09 2.438V88.13h-4.53c-.696 0-1.045.348-1.045 1.045v22.99c0 .697.349 1.045 1.045 1.045h42.155v4.877h-4.877c-1.394 0-2.09 1.393-2.09 2.787v13.933H38.67V97.535c1.394 0 2.439-1.045 2.439-2.438v-2.09h.348c1.394 0 2.439-1.045 2.439-2.439V86.04c0-1.394-1.045-2.439-2.439-2.439h-.348v-9.056h.348c1.394 0 2.439-1.045 2.439-2.439V58.173c0-1.394-1.045-2.439-2.439-2.439H28.916c-1.393 0-2.439 1.045-2.439 2.439v13.933c0 1.394 1.046 2.439 2.44 2.439h.348V83.6h-.349c-1.393 0-2.439 1.045-2.439 2.439v4.528c0 1.394 1.046 2.439 2.44 2.439h.348v2.09c0 1.393 1.045 2.438 2.438 2.438v37.272h-17.42V24.035h291.253v110.772h-23.69V97.883c1.393 0 2.438-1.045 2.438-2.438v-2.09h.348c1.394 0 2.439-1.045 2.439-2.438v-4.529c0-1.393-1.045-2.438-2.439-2.438h-.348v-9.057h.348c1.394 0 2.439-1.045 2.439-2.438V58.52c0-1.393-1.045-2.438-2.439-2.438H272.09c-1.393 0-2.438 1.045-2.438 2.438v13.934c0 1.393 1.045 2.438 2.438 2.438h.349v9.057h-.349c-1.393 0-2.438 1.045-2.438 2.438v4.529c0 1.393 1.045 2.438 2.438 2.438h.349v2.09c0 1.393 1.045 2.438 2.438 2.438v36.576h-29.264v-24.035c4.18-1.742 7.316-6.27 7.316-11.147 0-5.225-3.484-10.102-8.361-11.496l-1.742-.696v12.192l-2.09 1.393-2.09-1.393V87.433l-1.743.697c-5.226 1.741-8.361 6.27-8.361 11.495 0 4.877 3.135 9.057 7.316 11.147v24.035h-27.87l1.044-.696-4.18-5.226 5.225-3.831-4.18-5.225 5.226-3.832-4.181-5.225 5.226-3.832-4.18-5.225 5.225-3.832-4.18-5.225 5.225-3.832-3.832-4.876c.697-.349 5.574-8.36 7.664-16.72z" fill="#006CD3" fill-rule="evenodd" opacity=".359"/>
</svg>