<svg width="15" height="13" viewBox="0 0 15 13" xmlns="http://www.w3.org/2000/svg">
    <title>menu</title>
    <path d="M14.375 0H.625C.28 0 0 .336 0 .75v1.5c0 .414.28.75.625.75h13.75c.345 0 .625-.336.625-.75V.75c0-.414-.28-.75-.625-.75zm0 5H.625C.28 5 0 5.336 0 5.75v1.5c0 .414.28.75.625.75h13.75c.345 0 .625-.336.625-.75v-1.5c0-.414-.28-.75-.625-.75zm0 5H.625C.28 10 0 10.336 0 10.75v1.5c0 .414.28.75.625.75h13.75c.345 0 .625-.336.625-.75v-1.5c0-.414-.28-.75-.625-.75z" fill="#444" fill-rule="evenodd"/>
</svg>