<svg width="20" height="20" viewBox="0 0 20 20" xmlns="http://www.w3.org/2000/svg">
    <title>Shape</title>
    <path d="M2 0C.895 0 0 .895 0 2v12c0 1.105.895 2 2 2h4v3c0 .552.448 1 1 1h.5c.25 0 .5-.1.7-.29L11.9 16H18c1.105 0 2-.895 2-2V2c0-1.11-.9-2-2-2H2zm0 2h16v12h-6.92L8 17.08V14H2V2zm8.19 1.5c-.89 0-1.6.18-2.14.54-.55.36-.83.96-.78 1.65h1.97c0-.28.1-.49.26-.63.2-.14.42-.21.69-.21.31 0 .58.08.76.26.18.17.27.39.27.69 0 .28-.08.53-.22.74-.17.22-.38.4-.64.54-.52.32-.86.6-1.07.84C9.1 8.16 9 8.5 9 9h2c0-.28.05-.5.14-.68.09-.17.26-.32.52-.47.46-.21.84-.49 1.13-.85.29-.37.44-.76.44-1.2 0-.7-.27-1.26-.81-1.68-.54-.41-1.29-.62-2.23-.62zM9 10v2h2v-2H9z" fill="#000" fill-rule="evenodd"/>
</svg>