<svg width="12" height="12" viewBox="0 0 12 12" xmlns="http://www.w3.org/2000/svg">
    <title>search</title>
    <path d="M11.659 10.1L8.824 7.266c.428-.701.674-1.526.674-2.407 0-2.563-2.22-4.783-4.783-4.783C2.151.075.075 2.152.075 4.716c0 2.561 2.22 4.782 4.783 4.782.853 0 1.65-.232 2.336-.633l2.85 2.85c.278.279.73.279 1.009 0l.707-.707c.278-.278.177-.63-.101-.908zM1.503 4.715c0-1.774 1.438-3.212 3.212-3.212 1.774 0 3.355 1.58 3.355 3.356 0 1.773-1.439 3.212-3.212 3.212-1.775-.001-3.355-1.582-3.355-3.356z" fill="#BBB" fill-rule="evenodd"/>
</svg>