<svg width="36" height="36" viewBox="0 0 36 36" xmlns="http://www.w3.org/2000/svg">
    <title>time-1month</title>
    <path d="M18 36c9.941 0 18-8.059 18-18S27.941 0 18 0 0 8.059 0 18s8.059 18 18 18zm3.336-18.624V19h-6.512v-1.624h2.304v-6.352c0-.139.003-.28.008-.424.005-.144.013-.29.024-.44l-1.52 1.264c-.107.08-.21.13-.312.152-.101.021-.197.023-.288.004-.09-.019-.17-.05-.24-.096-.07-.045-.123-.092-.16-.14l-.696-.936 3.568-3.024h1.816v9.992h2.008zM6.456 28v-4.124h.68c.139 0 .23.064.276.192l.064.268c.072-.075.146-.144.222-.208.076-.064.158-.12.246-.166.088-.047.183-.083.286-.11.103-.027.214-.04.334-.04.253 0 .463.067.628.202.165.135.29.314.376.538.067-.13.149-.243.246-.338.097-.095.204-.171.32-.23.116-.059.239-.102.368-.13.13-.028.26-.042.39-.042.232 0 .437.035.616.104.179.07.329.171.45.306.121.135.214.3.278.494.064.195.096.416.096.664V28h-1.104v-2.62c0-.483-.207-.724-.62-.724-.093 0-.18.015-.258.046-.079.03-.148.077-.208.138-.06.061-.107.137-.14.228-.033.09-.05.195-.05.312V28H8.848v-2.62c0-.261-.051-.447-.154-.558-.103-.11-.254-.166-.454-.166-.128 0-.249.03-.362.09-.113.06-.22.143-.318.25V28H6.456zm8.608-4.188c.31 0 .59.05.844.148.253.099.47.24.652.422.181.183.321.405.42.666.099.261.148.556.148.884 0 .328-.05.623-.148.886-.099.263-.239.486-.42.67-.181.184-.399.325-.652.424-.253.099-.535.148-.844.148-.312 0-.595-.05-.85-.148-.255-.099-.473-.24-.654-.424-.181-.184-.322-.407-.422-.67-.1-.263-.15-.558-.15-.886 0-.328.05-.623.15-.884.1-.261.24-.483.422-.666.181-.183.4-.323.654-.422.255-.099.538-.148.85-.148zm3.784.544c.083-.08.169-.153.258-.22.09-.067.184-.124.284-.172.1-.048.208-.085.324-.112.116-.027.242-.04.378-.04.224 0 .423.039.596.116.173.077.32.185.438.324.119.139.208.304.268.496.06.192.09.403.09.632V28h-1.1v-2.62c0-.23-.053-.407-.16-.534-.107-.127-.264-.19-.472-.19-.155 0-.3.033-.436.1s-.265.16-.388.28V28h-1.104v-4.124h.68c.139 0 .23.064.276.192l.068.288zm4.936 3.708c-.187 0-.352-.027-.496-.082-.144-.055-.265-.133-.364-.234-.099-.101-.173-.224-.224-.368-.05-.144-.076-.307-.076-.488v-2.224h-.388c-.059 0-.109-.019-.15-.056-.041-.037-.062-.093-.062-.168v-.432l.66-.12.224-1.068c.03-.12.11-.18.244-.18h.576V23.9h1.064v.768h-1.064v2.152c0 .115.027.205.082.272.055.067.133.1.234.1.053 0 .099-.006.136-.018.037-.012.07-.025.096-.04l.074-.04c.023-.012.046-.018.07-.018.032 0 .059.007.08.022.021.015.043.04.064.074l.332.528c-.152.12-.324.21-.516.272-.192.061-.39.092-.596.092zm2.7-3.784c.077-.07.158-.133.242-.19.084-.057.173-.107.268-.148.095-.041.196-.073.304-.096.108-.023.225-.034.35-.034.224 0 .423.039.596.116.173.077.32.185.438.324.119.139.208.304.268.496.06.192.09.403.09.632V28h-1.1v-2.62c0-.23-.053-.407-.16-.534-.107-.127-.264-.19-.472-.19-.155 0-.3.033-.436.1s-.265.16-.388.28V28H25.38v-5.964h1.104v2.244zm-11.42 2.952c.315 0 .548-.109.7-.326.152-.217.228-.54.228-.97 0-.427-.076-.749-.228-.966-.152-.217-.385-.326-.7-.326-.323 0-.56.109-.712.326-.152.217-.228.54-.228.966 0 .43.076.753.228.97.152.217.39.326.712.326z" fill="#174B7E" fill-rule="evenodd"/>
</svg>