<svg width="36" height="36" viewBox="0 0 36 36" xmlns="http://www.w3.org/2000/svg">
    <title>time-3month</title>
    <path d="M18 36c9.941 0 18-8.059 18-18S27.941 0 18 0 0 8.059 0 18s8.059 18 18 18zm-3.672-25.6c.085-.565.245-1.061.48-1.488.235-.427.528-.781.88-1.064.352-.283.753-.495 1.204-.636.45-.141.937-.212 1.46-.212.555 0 1.052.079 1.492.236.44.157.812.372 1.116.644.304.272.537.59.7.952.163.363.244.752.244 1.168 0 .368-.039.692-.116.972-.077.28-.192.524-.344.732-.152.208-.339.384-.56.528-.221.144-.476.264-.764.36 1.333.437 2 1.325 2 2.664 0 .592-.11 1.113-.328 1.564-.219.45-.512.828-.88 1.132-.368.304-.796.532-1.284.684-.488.152-.999.228-1.532.228-.565 0-1.064-.064-1.496-.192-.432-.128-.812-.32-1.14-.576-.328-.256-.61-.577-.844-.964-.235-.387-.44-.839-.616-1.356l.976-.4c.256-.107.495-.136.716-.088.221.048.38.165.476.352.107.203.22.39.34.56.12.17.255.319.404.444.15.125.319.223.508.292.19.07.407.104.652.104.31 0 .579-.05.808-.152.23-.101.421-.233.576-.396.155-.163.27-.347.348-.552.077-.205.116-.41.116-.612 0-.267-.024-.508-.072-.724-.048-.216-.159-.4-.332-.552-.173-.152-.43-.27-.768-.352-.339-.083-.799-.124-1.38-.124v-1.552c.485 0 .883-.04 1.192-.12.31-.08.552-.192.728-.336.176-.144.297-.317.364-.52s.1-.424.1-.664c0-.507-.132-.893-.396-1.16-.264-.267-.639-.4-1.124-.4-.213 0-.41.03-.588.092-.179.061-.339.145-.48.252-.141.107-.263.232-.364.376-.101.144-.176.301-.224.472-.101.267-.232.444-.392.532-.16.088-.392.108-.696.06l-1.16-.208zM5.456 28v-4.124h.68c.139 0 .23.064.276.192l.064.268c.072-.075.146-.144.222-.208.076-.064.158-.12.246-.166.088-.047.183-.083.286-.11.103-.027.214-.04.334-.04.253 0 .463.067.628.202.165.135.29.314.376.538.067-.13.149-.243.246-.338.097-.095.204-.171.32-.23.116-.059.239-.102.368-.13.13-.028.26-.042.39-.042.232 0 .437.035.616.104.179.07.329.171.45.306.121.135.214.3.278.494.064.195.096.416.096.664V28h-1.104v-2.62c0-.483-.207-.724-.62-.724-.093 0-.18.015-.258.046-.079.03-.148.077-.208.138-.06.061-.107.137-.14.228-.033.09-.05.195-.05.312V28H7.848v-2.62c0-.261-.051-.447-.154-.558-.103-.11-.254-.166-.454-.166-.128 0-.249.03-.362.09-.113.06-.22.143-.318.25V28H5.456zm8.608-4.188c.31 0 .59.05.844.148.253.099.47.24.652.422.181.183.321.405.42.666.099.261.148.556.148.884 0 .328-.05.623-.148.886-.099.263-.239.486-.42.67-.181.184-.399.325-.652.424-.253.099-.535.148-.844.148-.312 0-.595-.05-.85-.148-.255-.099-.473-.24-.654-.424-.181-.184-.322-.407-.422-.67-.1-.263-.15-.558-.15-.886 0-.328.05-.623.15-.884.1-.261.24-.483.422-.666.181-.183.4-.323.654-.422.255-.099.538-.148.85-.148zm3.784.544c.083-.08.169-.153.258-.22.09-.067.184-.124.284-.172.1-.048.208-.085.324-.112.116-.027.242-.04.378-.04.224 0 .423.039.596.116.173.077.32.185.438.324.119.139.208.304.268.496.06.192.09.403.09.632V28h-1.1v-2.62c0-.23-.053-.407-.16-.534-.107-.127-.264-.19-.472-.19-.155 0-.3.033-.436.1s-.265.16-.388.28V28h-1.104v-4.124h.68c.139 0 .23.064.276.192l.068.288zm4.936 3.708c-.187 0-.352-.027-.496-.082-.144-.055-.265-.133-.364-.234-.099-.101-.173-.224-.224-.368-.05-.144-.076-.307-.076-.488v-2.224h-.388c-.059 0-.109-.019-.15-.056-.041-.037-.062-.093-.062-.168v-.432l.66-.12.224-1.068c.03-.12.11-.18.244-.18h.576V23.9h1.064v.768h-1.064v2.152c0 .115.027.205.082.272.055.067.133.1.234.1.053 0 .099-.006.136-.018.037-.012.07-.025.096-.04l.074-.04c.023-.012.046-.018.07-.018.032 0 .059.007.08.022.021.015.043.04.064.074l.332.528c-.152.12-.324.21-.516.272-.192.061-.39.092-.596.092zm2.7-3.784c.077-.07.158-.133.242-.19.084-.057.173-.107.268-.148.095-.041.196-.073.304-.096.108-.023.225-.034.35-.034.224 0 .423.039.596.116.173.077.32.185.438.324.119.139.208.304.268.496.06.192.09.403.09.632V28h-1.1v-2.62c0-.23-.053-.407-.16-.534-.107-.127-.264-.19-.472-.19-.155 0-.3.033-.436.1s-.265.16-.388.28V28H24.38v-5.964h1.104v2.244zm5.996.444c-.03.045-.06.078-.09.098-.03.02-.073.03-.126.03-.053 0-.108-.013-.164-.04-.056-.027-.119-.055-.188-.086-.07-.03-.149-.06-.238-.086-.09-.027-.193-.04-.31-.04-.179 0-.317.037-.416.11-.099.073-.148.17-.148.29 0 .083.028.152.084.208.056.056.13.105.222.146.092.041.197.08.314.116.117.036.238.075.362.118s.245.092.362.148c.117.056.222.126.314.21.092.084.166.185.222.304.056.119.084.262.084.43 0 .2-.037.385-.11.554-.073.17-.18.315-.322.438-.141.123-.317.219-.528.288-.21.07-.453.104-.728.104-.141 0-.281-.013-.42-.038-.139-.025-.27-.061-.396-.108-.125-.047-.243-.1-.352-.162-.11-.061-.204-.128-.284-.2l.256-.412c.03-.048.066-.085.11-.112.044-.027.1-.04.17-.04.067 0 .128.017.184.05.056.033.119.07.188.108.07.039.151.075.246.108s.213.05.354.05c.107 0 .199-.012.276-.036.077-.024.14-.057.188-.098.048-.041.083-.088.106-.14.023-.052.034-.106.034-.162 0-.09-.029-.165-.086-.222-.057-.057-.132-.107-.224-.15s-.198-.081-.318-.116-.242-.073-.366-.116c-.124-.043-.245-.093-.364-.152s-.224-.133-.316-.222c-.092-.09-.167-.2-.224-.33-.057-.13-.086-.29-.086-.476 0-.17.033-.333.1-.486.067-.153.167-.289.3-.406.133-.117.3-.21.498-.28.199-.07.429-.104.69-.104.293 0 .56.048.8.144.24.096.437.221.592.376l-.252.392zm-17.416 2.508c.315 0 .548-.109.7-.326.152-.217.228-.54.228-.97 0-.427-.076-.749-.228-.966-.152-.217-.385-.326-.7-.326-.323 0-.56.109-.712.326-.152.217-.228.54-.228.966 0 .43.076.753.228.97.152.217.39.326.712.326z" fill="#174B7E" fill-rule="evenodd"/>
</svg>